# xmcd
#
# Track frame offsets:
#	150
#	11441
#	26620
#	40360
#	54511
#	69164
#	83453
#	97307
#	110839
#	127821
#	141794
#	157125
#	171505
#	184269
#	198886
#	210621
#	224251
#	237095
#	250729
#	261954
#	272436
#	285503
#	298749
#	312373
#	327790
#
# Disc length: 4550 seconds
#
# Revision: 0
# Processed by: cddbd v1.5.2PL0 Copyright (c) Steve Scherf et al.
# Submitted via: EZCDAudioConverter 3.1.7.1
#
DISCID=7011c419
DTITLE=Mississippi Blues Artists  - Mississippi Blues Another Journey [CD4]
DYEAR=2015
DGENRE=Blues
TTITLE0=Buddy Boy Hawkins - Raggin' The Blues
TTITLE1=Raggin' The Blues - Mississippi Jail House Groan
TTITLE2=Tom Dickson - Worry Blues
TTITLE3=Furry Lewis - Dry Land Blues
TTITLE4=Blind Joe Reynolds - Nehi Mama Blues
TTITLE5=Jenny Pope - Rent Man Blues
TTITLE6=Willie Harris - Lonesome Midnight Dream
TTITLE7=Sam Collins - Signifying Blues
TTITLE8=Ben Curry - Hot Dog
TTITLE9=Ramblin' Thomas - Little Old Mama Blues
TTITLE10=Georgia Boyd - Never Mind Blues
TTITLE11=Kansas Joe - meat Cutter Blues
TTITLE12=Poor Boy Lofton - Dirty Mistreater
TTITLE13=Sam Montgomery - Low In Mind Blues
TTITLE14=Chasey Collins - Atlanta Town
TTITLE15=Mose Andrewa - Young Heifer Blues
TTITLE16=Robert Lee McCoy - Friar's Point Blues
TTITLE17=Honeyboy Edwards - Roamin' And ramblin' Blues
TTITLE18=Willie Nix - Lonesome Bedroom Blues
TTITLE19=Houston Boines - Going Home
TTITLE20=Charley Booker - No Ridin, Blues
TTITLE21=Driftin' Slim - My Sweet Woman
TTITLE22=Little Milton Anderson - Mistreated Baby Blues
TTITLE23=Rosalie Hill - Bullyin' Well
TTITLE24=Forest City Joe - You Gotta Cut That Out
EXTD=
EXTT0=
EXTT1=
EXTT2=
EXTT3=
EXTT4=
EXTT5=
EXTT6=
EXTT7=
EXTT8=
EXTT9=
EXTT10=
EXTT11=
EXTT12=
EXTT13=
EXTT14=
EXTT15=
EXTT16=
EXTT17=
EXTT18=
EXTT19=
EXTT20=
EXTT21=
EXTT22=
EXTT23=
EXTT24=
PLAYORDER=
